<?xml version="1.0" encoding="UTF-8"?>
<svg id="Layer_1" data-name="Layer 1" xmlns="http://www.w3.org/2000/svg" viewBox="0 0 500 444">
  <defs>
    <style>
      .cls-1 {
        fill: #070808;
      }
    </style>
  </defs>
  <path class="cls-1" d="m24.59,128.36c14.02,5.27,23.12-8.5,23.97-21.93.42-6.61-1.15-13.13-5.13-17.27C25.33,70.32.14,119.17,24.59,128.36Z"/>
  <path class="cls-1" d="m164.94,427.48c-2.54,11.71,9.43,17.32,20.17,16.43,5.28-.44,10.26-2.44,13.08-6.07,12.81-16.54-28.82-30.8-33.25-10.36Z"/>
  <path class="cls-1" d="m367.94,393.94c-4.83,3.02-8.47,8.25-9.89,13.74-1.43,5.49-.64,11.25,3.38,15.29,7.78,7.82,22.15,3.7,28.58-5.27,15.4-21.5.78-38.01-22.06-23.76Z"/>
  <path class="cls-1" d="m48.63,293.4c19.77-5.36,24.6-39.53,25.54-56.19,1.52-26.95-6.14-55.78-18.69-73.74-6.46-9.25-16.52-18.21-27.6-16.07-57.66,11.13-13.36,155.26,20.75,146.01Z"/>
  <path class="cls-1" d="m388.2,321.84c41.19-95.75,36.66-243.29-64.51-300.7-16.54-9.39-34.8-15.53-53.5-18.82-44.21-7.78-89.49,4.61-126.77,28.7-23.11,14.94-53.53,36.51-65.49,62.66-17.63,38.55,22.08,47.7,46.84,64.34,25.91,17.42,35.91,50.11,24.43,79.1-12.37,31.24-60.41,41.81-62.05,76.99-2.28,49.6,80.67,83.25,119.07,91.6,50.53,10.99,106.75,2.52,146.07-32.97,14.65-13.22,26.97-30.1,35.92-50.91Z"/>
  <path class="cls-1" d="m455.42,94.88c-10.11-9.99-18.37-9.37-23.94-3.95-5.68,5.54-8.54,16.09-7.66,25.52,3.27,35.09,24.61,65.36,27.66,100.58,3.34,38.61-24.12,74.34-37.19,108.84-5.58,14.75-16.13,60.8,9.85,63.9,30.19,3.59,66.45-94.62,70.97-118.9,11.05-59.46,5.66-131.13-39.69-175.98Z"/>
  <path class="cls-1" d="m115.01,224.65c-3.22-1.54-7.16,1.29-8.14,4.72-2.35,8.23,3.9,11.67,9.31,4.84,1.14-1.45,1.68-3.44,1.52-5.27-.16-1.83-1.03-3.5-2.7-4.29Z"/>
  <path class="cls-1" d="m118.27,195c-.3-3.3-1.86-6.31-4.86-7.74-5.81-2.77-12.91,2.32-14.68,8.51-4.24,14.85,7.04,21.06,16.8,8.73,2.06-2.61,3.04-6.2,2.74-9.5Z"/>
  <path class="cls-1" d="m402.51,48.91c2.98-.44,4.41-4.26,3.48-7.12-2.22-6.86-8.21-6.34-8.79.98-.12,1.55.43,3.19,1.41,4.4.97,1.2,2.36,1.97,3.9,1.74Z"/>
  <path class="cls-1" d="m421.17,74.33c5.37-.79,7.95-7.68,6.28-12.84-4-12.38-14.81-11.43-15.85,1.77-.22,2.79.78,5.76,2.54,7.94,1.76,2.17,4.26,3.55,7.04,3.14Z"/>
  <path class="cls-1" d="m136.57,407.48c-3.9-2.95-8.8-4.14-13.45-5.66-24.93-8.2-45.41-28.85-53.42-53.85-15.38-48.03-35.83-24.81-18.34,12.95,13.62,29.42,39.32,53.65,70.48,63.37,6.86,2.14,16.28,2.57,19.22-3.99.15-.33.27-.66.37-.99,1.24-4.25-1.25-9.08-4.87-11.82Z"/>
</svg>