<?xml version="1.0" encoding="UTF-8"?>
<svg xmlns="http://www.w3.org/2000/svg" xmlns:xlink="http://www.w3.org/1999/xlink" viewBox="0 0 500 444">
  <defs>
    <style>
      .cls-1 {
        fill: url(#Degradado_sin_nombre_322-2);
      }

      .cls-2 {
        fill: url(#Degradado_sin_nombre_322-6);
      }

      .cls-3 {
        fill: url(#Degradado_sin_nombre_322-8);
      }

      .cls-4 {
        fill: url(#Degradado_sin_nombre_322-4);
      }

      .cls-5 {
        fill: url(#Degradado_sin_nombre_326-2);
      }

      .cls-5, .cls-6, .cls-7, .cls-8, .cls-9, .cls-10 {
        mix-blend-mode: screen;
      }

      .cls-11 {
        fill: url(#Degradado_sin_nombre_322-3);
      }

      .cls-12 {
        isolation: isolate;
      }

      .cls-13 {
        fill: none;
        stroke: url(#Degradado_sin_nombre_330);
        stroke-miterlimit: 10;
      }

      .cls-14 {
        fill: url(#Degradado_sin_nombre_322-7);
      }

      .cls-6 {
        fill: url(#Degradado_sin_nombre_326-3);
      }

      .cls-7 {
        fill: url(#Degradado_sin_nombre_326-4);
      }

      .cls-8 {
        fill: url(#Degradado_sin_nombre_326-5);
      }

      .cls-15 {
        fill: url(#Degradado_sin_nombre_323);
      }

      .cls-9 {
        fill: url(#Degradado_sin_nombre_326);
      }

      .cls-10 {
        fill: url(#Degradado_sin_nombre_326-6);
      }

      .cls-16 {
        fill: url(#Degradado_sin_nombre_322);
      }

      .cls-17 {
        fill: url(#Degradado_sin_nombre_322-5);
      }
    </style>
    <linearGradient id="Degradado_sin_nombre_330" data-name="Degradado sin nombre 330" x1="249.64" y1="374.02" x2="249.64" y2="30.11" gradientUnits="userSpaceOnUse">
      <stop offset="0" stop-color="#1c65b1"/>
      <stop offset=".14" stop-color="#1770b9" stop-opacity=".78"/>
      <stop offset=".35" stop-color="#117fc3" stop-opacity=".5"/>
      <stop offset=".55" stop-color="#0c8acc" stop-opacity=".29"/>
      <stop offset=".73" stop-color="#0893d2" stop-opacity=".13"/>
      <stop offset=".88" stop-color="#0698d5" stop-opacity=".03"/>
      <stop offset="1" stop-color="#069ad7" stop-opacity="0"/>
    </linearGradient>
    <linearGradient id="Degradado_sin_nombre_322" data-name="Degradado sin nombre 322" x1="251.86" y1="305.77" x2="284.08" y2="305.77" gradientUnits="userSpaceOnUse">
      <stop offset="0" stop-color="#1c65b1"/>
      <stop offset=".23" stop-color="#1673bb"/>
      <stop offset=".66" stop-color="#0698d5"/>
      <stop offset=".67" stop-color="#069ad7"/>
      <stop offset=".97" stop-color="#7acdf3"/>
    </linearGradient>
    <linearGradient id="Degradado_sin_nombre_326" data-name="Degradado sin nombre 326" x1="268.37" y1="311.09" x2="268.37" y2="296.24" gradientUnits="userSpaceOnUse">
      <stop offset="0" stop-color="#1c65b1" stop-opacity="0"/>
      <stop offset=".11" stop-color="#1a68b3" stop-opacity=".07"/>
      <stop offset=".31" stop-color="#1671ba" stop-opacity=".24"/>
      <stop offset=".59" stop-color="#1080c4" stop-opacity=".52"/>
      <stop offset=".93" stop-color="#0795d3" stop-opacity=".91"/>
      <stop offset="1" stop-color="#069ad7"/>
    </linearGradient>
    <linearGradient id="Degradado_sin_nombre_322-2" data-name="Degradado sin nombre 322" x1="382.04" y1="284.89" x2="401.77" y2="284.89" xlink:href="#Degradado_sin_nombre_322"/>
    <linearGradient id="Degradado_sin_nombre_326-2" data-name="Degradado sin nombre 326" x1="394.33" y1="287.5" x2="394.33" y2="276.24" xlink:href="#Degradado_sin_nombre_326"/>
    <linearGradient id="Degradado_sin_nombre_322-3" data-name="Degradado sin nombre 322" x1="0" y1="169.84" x2="32.26" y2="169.84" xlink:href="#Degradado_sin_nombre_322"/>
    <linearGradient id="Degradado_sin_nombre_326-3" data-name="Degradado sin nombre 326" x1="19.36" y1="172.74" x2="19.36" y2="152.51" xlink:href="#Degradado_sin_nombre_326"/>
    <linearGradient id="Degradado_sin_nombre_323" data-name="Degradado sin nombre 323" x1="4.73" y1="270.59" x2="64.37" y2="270.59" gradientUnits="userSpaceOnUse">
      <stop offset=".03" stop-color="#7acdf3"/>
      <stop offset=".33" stop-color="#069ad7"/>
      <stop offset=".34" stop-color="#0698d5"/>
      <stop offset=".77" stop-color="#1673bb"/>
      <stop offset="1" stop-color="#1c65b1"/>
    </linearGradient>
    <linearGradient id="Degradado_sin_nombre_322-4" data-name="Degradado sin nombre 322" x1="115.28" y1="95.87" x2="76.27" y2="28.3" xlink:href="#Degradado_sin_nombre_322"/>
    <linearGradient id="Degradado_sin_nombre_326-4" data-name="Degradado sin nombre 326" x1="102.71" y1="91.45" x2="77.35" y2="47.52" gradientTransform="translate(38.54 -41.37) rotate(8.08)" xlink:href="#Degradado_sin_nombre_326"/>
    <linearGradient id="Degradado_sin_nombre_322-5" data-name="Degradado sin nombre 322" x1="98.83" y1="337.74" x2="378.03" y2="58.54" xlink:href="#Degradado_sin_nombre_322"/>
    <linearGradient id="Degradado_sin_nombre_326-5" data-name="Degradado sin nombre 326" x1="245.78" y1="354.88" x2="245.78" y2="31.87" xlink:href="#Degradado_sin_nombre_326"/>
    <linearGradient id="Degradado_sin_nombre_322-6" data-name="Degradado sin nombre 322" x1="368.4" y1="444" x2="368.4" y2="223.6" xlink:href="#Degradado_sin_nombre_322"/>
    <linearGradient id="Degradado_sin_nombre_326-6" data-name="Degradado sin nombre 326" x1="379.64" y1="420" x2="360.06" y2="271.47" gradientTransform="translate(25.43 -24.64) rotate(3.82)" xlink:href="#Degradado_sin_nombre_326"/>
    <linearGradient id="Degradado_sin_nombre_322-7" data-name="Degradado sin nombre 322" x1="200.07" y1="88.78" x2="211.11" y2="88.78" xlink:href="#Degradado_sin_nombre_322"/>
    <linearGradient id="Degradado_sin_nombre_322-8" data-name="Degradado sin nombre 322" x1="191.75" y1="58.91" x2="211.68" y2="58.91" xlink:href="#Degradado_sin_nombre_322"/>
  </defs>
  <g class="cls-12">
    <g id="Layer_1" data-name="Layer 1">
      <g>
        <path class="cls-13" d="m423.94,200.68c-.21-.21-.43-.42-.64-.63-32.15-31.01-98.84,9.53-113.56-42.7-13.75-48.78-31.72-97.32-83.96-118.31-52.79-21.21-106.9-.8-138,43.45-23.15,32.94-31.53,73.53-32.51,113.16-.39,15.93,3.01,35.59,18.81,40.77,35.57,11.67,64.94-22.59,87.62,22.75,24.47,48.92,56.95,112.72,122.98,114.33,69.55,1.69,211.93-100.68,139.28-172.82Z"/>
        <path class="cls-16" d="m263.57,317.71c4.57,2.26,9.71,3.14,13.9,1.68,19.08-6.66-7.81-38.33-22.01-24.48-8.14,7.94-1.18,18.22,8.11,22.81Z"/>
        <path class="cls-9" d="m266.09,309.85c2.37,1.17,5.03,1.62,7.2.87,9.88-3.45-4.05-19.85-11.4-12.68-4.22,4.11-.61,9.44,4.2,11.81Z"/>
        <path class="cls-1" d="m401.42,285.63c.73-3.44.36-6.98-1.52-9.44-8.56-11.19-26.13,12.64-13.35,19.22,7.33,3.78,13.38-2.8,14.87-9.79Z"/>
        <path class="cls-5" d="m398.93,282.23c.35-1.66.17-3.37-.73-4.56-4.14-5.41-12.64,6.11-6.46,9.3,3.54,1.83,6.47-1.35,7.19-4.73Z"/>
        <path class="cls-11" d="m3.15,182.49c2.79,4.53,7.29,7.78,12.82,7.8,10.72.03,17.77-12.08,16.02-22.15-4.19-24.15-25.58-25.4-31.48-1.12-1.25,5.14-.15,10.94,2.64,15.47Z"/>
        <path class="cls-6" d="m12.94,168.88c1.38,2.24,3.61,3.85,6.35,3.86,5.3.02,8.79-5.98,7.93-10.96-2.07-11.95-12.66-12.57-15.58-.55-.62,2.54-.08,5.42,1.31,7.66Z"/>
        <path class="cls-15" d="m62.41,327.76c2.75-3.15,2.4-8.17.24-11.83-2.33-3.94-6.24-6.76-9.79-9.77-19.04-16.16-29.3-41.25-26.75-65.43,4.9-46.45-22.32-34.28-21.36,4.23.75,30,14.27,60.06,38.27,79.81,5.28,4.35,13.52,8.18,18.67,3.7.26-.22.49-.46.71-.71Z"/>
        <path class="cls-4" d="m24.92,133.17c4.26-.16,8.67-1.7,12.09-4.13,6.79-4.83,10.96-12.18,15.98-18.68,25.65-33.13,68.79-27.1,104.99-40.18,35.83-12.95,55.68-61.73,3.84-69.54-13.44-2.03-27.19.98-40.01,5.34C72.99,22.6,32.43,60.02,13.45,105.99c-3.14,7.61-5.38,17.18.41,23.22,2.83,2.95,6.88,4.13,11.07,3.97Z"/>
        <path class="cls-7" d="m65.15,80.06c2.78.27,5.79-.34,8.24-1.62,4.87-2.54,8.28-6.94,12.17-10.71,19.84-19.24,47.23-11.54,71.98-16.85,24.49-5.25,42.08-35.15,9.21-44.77-8.52-2.49-17.73-1.75-26.46-.05-33.28,6.49-63.2,27.2-79.96,55.35-2.77,4.66-5.15,10.67-1.98,15.09,1.55,2.16,4.06,3.28,6.79,3.55Z"/>
        <path class="cls-17" d="m206.57,366.93c.26-.15.52-.31.78-.47,38.5-23.55,10.67-94.1,67.36-97,52.94-2.71,106.5-9.41,138.88-53.76,32.71-44.81,22.96-99.47-16.05-137.62-29.03-28.4-68.98-44.62-109.47-53.74-16.27-3.67-37.17-4.56-45.76,9.09-19.34,30.74,9.75,65.2-41.51,76.95-55.3,12.68-127.55,29.74-142.87,90.95-16.14,64.48,59.51,218.37,148.63,165.59Z"/>
        <path class="cls-8" d="m211.31,345.04c.24-.14.47-.28.71-.43,35.53-21.74,7.62-85.33,61.16-88.07,48.06-2.46,96.7-8.55,126.09-48.81,29.7-40.68,20.85-90.32-14.57-124.95-26.36-25.78-62.63-40.51-99.39-48.79-14.78-3.33-33.75-4.14-41.55,8.25-17.56,27.91,8.85,59.2-37.68,69.87-50.21,11.51-115.81,27-129.72,82.58-14.66,58.54,54.03,198.27,134.95,150.35Z"/>
        <path class="cls-2" d="m480.61,223.7c-25.25-2.78-57.08,57.9-64.64,68.65-18.64,26.49-39.88,21.33-68.26,17.09-31.43-4.69-47.05,9.65-62.78,33.04-12.94,19.23-49.6,51.68-48.08,74.63,1.68,25.35,40.42,29.13,60.06,25.93,58.2-9.46,113.61-38.4,150.67-82.56,18.78-22.37,34.01-51.42,43.82-78.32,4.04-11.07,12.29-30.2,6.77-42.03-5.08-10.88-11.1-15.73-17.55-16.43Z"/>
        <path class="cls-10" d="m463.37,264.35c-19.26-3.37-47,41.72-53.4,49.61-15.76,19.45-31.81,14.45-53.4,9.8-23.91-5.15-36.69,5.12-50.05,22.32-10.98,14.15-40.92,37.3-40.99,55.02-.07,19.57,29.5,24.37,44.77,22.88,45.25-4.42,89.41-23.96,120.29-56.09,15.64-16.28,28.92-37.86,37.91-58.07,3.7-8.32,11.08-22.61,7.47-31.98-3.32-8.61-7.68-12.63-12.6-13.49Z"/>
        <g>
          <path class="cls-14" d="m211.09,86.84c-.16-1.69-1-3.24-2.62-3.97-3.13-1.42-6.95,1.19-7.91,4.37-2.28,7.62,3.79,10.8,9.05,4.48,1.11-1.34,1.63-3.18,1.48-4.88Z"/>
          <path class="cls-3" d="m211.63,55.41c-.29-3.06-1.81-5.84-4.73-7.17-5.65-2.57-12.54,2.15-14.26,7.88-4.12,13.75,6.85,19.49,16.33,8.08,2.01-2.41,2.95-5.74,2.66-8.8Z"/>
        </g>
      </g>
    </g>
  </g>
</svg>